# xmcd CD database file
#
# Track frame offsets:
#	167
#	16870
#	29750
#	47362
#	57135
#	73330
#	88682
#	104340
#	116100
#	130545
#	142707
#	153125
#	168557
#	184137
#	195777
#
# Disc length: 2823 seconds
#
# Revision: 2
# Processed by: cddbd v1.4b42PL1 Copyright (c) Steve Scherf et al.
# Submitted via: CDex 1.40Beta8
#
DISCID=be0b050f
DTITLE=John Starling - Long Time Gone
DYEAR=1990
DGENRE=Country
TTITLE0=Long Time Gone
TTITLE1=Turned You To Stone
TTITLE2=Half A Man
TTITLE3=Jordan
TTITLE4=White Line
TTITLE5=Hobo On A Freight Train To Heaven
TTITLE6=Last Thing I Need
TTITLE7=Brother Jukebox
TTITLE8=Carolyn At The Broken Wheel Inn
TTITLE9=He Rode All The Way To Texas
TTITLE10=Drifting Too Far From The Shore
TTITLE11=Dark Hollow (Bonus CD Track)
TTITLE12=Lonesome Whistle (Bonus CD Track)
TTITLE13=Roads And Other Reasons (Bonus CD Track)
TTITLE14=Sin City (Bonus CD Track)
EXTD=YEAR: 1990 ID3G: 2
EXTT0=
EXTT1=
EXTT2=
EXTT3=
EXTT4=
EXTT5=
EXTT6=
EXTT7=
EXTT8=
EXTT9=
EXTT10=
EXTT11=
EXTT12=
EXTT13=
EXTT14=
PLAYORDER=
